Coordinates
version=1
nRows=27
nColumns=38
inDegrees=no

Units are S.I. units (second, meters, Newtons, ...)
If the header above contains a line with 'inDegrees', this indicates whether rotational values are in degrees (yes) or radians (no).

endheader
time	pelvis_tilt	pelvis_list	pelvis_rotation	pelvis_tx	pelvis_ty	pelvis_tz	hip_flexion_r	hip_adduction_r	hip_rotation_r	knee_angle_r	ankle_angle_r	subtalar_angle_r	mtp_angle_r	hip_flexion_l	hip_adduction_l	hip_rotation_l	knee_angle_l	ankle_angle_l	subtalar_angle_l	mtp_angle_l	lumbar_extension	lumbar_bending	lumbar_rotation	arm_flex_r	arm_add_r	arm_rot_r	elbow_flex_r	pro_sup_r	wrist_flex_r	wrist_dev_r	arm_flex_l	arm_add_l	arm_rot_l	elbow_flex_l	pro_sup_l	wrist_flex_l	wrist_dev_l
0.53	2.97224	1.08822	1.56696	0.634609	0.947112	1.01578	0.750234	-0.0759608	0.037142	1.27723	-0.220728	0	0	0.646916	0.0277249	-0.120378	0.299405	-0.125332	0	0	0.401713	0.0234274	0.278073	-0.352372	-0.256715	-0.0990708	0.53263	1.56255	0	0	-0.0837084	-0.0888591	-0.890755	0.269451	1.5708	0	0
0.54	2.9856	1.08963	1.55661	0.63422	0.935874	1.01716	0.772492	-0.0727567	0.032276	1.28329	-0.200493	0	0	0.632463	0.0245841	-0.118908	0.297335	-0.119683	0	0	0.40005	0.0310992	0.272444	-0.357126	-0.256328	-0.10295	0.531504	1.56605	0	0	-0.0843215	-0.0877983	-0.894855	0.268837	1.5708	0	0
0.55	2.9977	1.09148	1.54657	0.633717	0.924775	1.01853	0.793638	-0.0694586	0.0280942	1.28485	-0.181822	0	0	0.617503	0.0214237	-0.120399	0.296258	-0.113588	0	0	0.397224	0.0383182	0.268105	-0.361494	-0.25527	-0.109365	0.530707	1.56701	0	0	-0.0842035	-0.0869945	-0.898289	0.268148	1.5708	0	0
0.56	3.00933	1.09492	1.53649	0.633091	0.913795	1.01999	0.812139	-0.0658786	0.0246821	1.28177	-0.165203	0	0	0.601037	0.0180415	-0.123543	0.296128	-0.106925	0	0	0.391652	0.0451291	0.264476	-0.364606	-0.253844	-0.116684	0.529458	1.56553	0	0	-0.082856	-0.0864507	-0.901048	0.267175	1.5708	0	0
0.57	3.02192	1.09998	1.52574	0.63238	0.902852	1.02151	0.82749	-0.0617897	0.0213797	1.27398	-0.150128	0	0	0.582149	0.013922	-0.12856	0.294037	-0.101009	0	0	0.383411	0.0518768	0.260556	-0.366175	-0.252205	-0.124686	0.527576	1.56071	0	0	-0.0805729	-0.0860529	-0.902906	0.266055	1.5708	0	0
0.58	3.03557	1.10352	1.51414	0.631642	0.891972	1.02277	0.842953	-0.0571304	0.0175562	1.26097	-0.134781	0	0	0.563384	0.00951137	-0.133766	0.287764	-0.0977864	0	0	0.376754	0.0590967	0.256275	-0.367526	-0.25063	-0.132366	0.525502	1.55302	0	0	-0.0785928	-0.0857001	-0.904001	0.265123	1.5708	0	0
0.59	3.05069	1.10293	1.50185	0.630871	0.88117	1.02361	0.860983	-0.0516468	0.013207	1.24238	-0.121123	0	0	0.54953	0.00452485	-0.135231	0.282508	-0.0952431	0	0	0.375344	0.0671252	0.251204	-0.369429	-0.248923	-0.139488	0.52275	1.5428	0	0	-0.0776329	-0.0855384	-0.904362	0.264206	1.5708	0	0
0.6	3.06624	1.10048	1.48986	0.630088	0.870412	1.02423	0.879539	-0.0463785	0.00759782	1.21885	-0.110499	0	0	0.537792	-0.000856753	-0.135209	0.276979	-0.0947766	0	0	0.376346	0.0752808	0.245938	-0.371784	-0.247341	-0.145191	0.519441	1.53168	0	0	-0.0767746	-0.0854882	-0.903326	0.263202	1.5708	0	0
0.61	3.08248	1.09795	1.4776	0.629313	0.859682	1.02471	0.896658	-0.0410673	0.000803512	1.19025	-0.102508	0	0	0.525121	-0.00656253	-0.135862	0.267862	-0.0938284	0	0	0.377193	0.0837729	0.240617	-0.373844	-0.246071	-0.149564	0.515706	1.51973	0	0	-0.0755781	-0.085128	-0.901328	0.262416	1.5708	0	0
0.62	3.09823	1.09502	1.46606	0.628495	0.848983	1.02507	0.912289	-0.0355883	-0.00570565	1.15574	-0.0952219	0	0	0.513107	-0.012363	-0.136424	0.259377	-0.0933236	0	0	0.378269	0.0920061	0.235323	-0.375243	-0.245107	-0.15203	0.51094	1.50804	0	0	-0.0739388	-0.0846451	-0.899256	0.261594	1.5708	0	0
0.63	3.1125	1.09123	1.45602	0.627619	0.838311	1.02526	0.926623	-0.0301898	-0.0107572	1.11514	-0.0908896	0	0	0.502337	-0.017801	-0.13718	0.252143	-0.0920909	0	0	0.380261	0.0996339	0.230273	-0.375797	-0.244176	-0.152933	0.504882	1.4964	0	0	-0.0720503	-0.084029	-0.897772	0.26079	1.5708	0	0
0.64	3.12492	1.08718	1.44791	0.626706	0.827613	1.02528	0.939048	-0.0252939	-0.014519	1.06905	-0.0896116	0	0	0.491269	-0.0225038	-0.137871	0.244164	-0.0925565	0	0	0.382559	0.106421	0.225448	-0.375766	-0.24317	-0.15259	0.498032	1.48609	0	0	-0.0698993	-0.0831783	-0.897293	0.260291	1.5708	0	0
0.65	3.13599	1.08332	1.44152	0.625809	0.816872	1.02516	0.948938	-0.0211515	-0.01771	1.01742	-0.0905773	0	0	0.479494	-0.0261748	-0.138484	0.235614	-0.092057	0	0	0.384696	0.112436	0.220745	-0.37524	-0.242337	-0.150446	0.490352	1.47692	0	0	-0.0674272	-0.0820747	-0.897517	0.260253	1.5708	0	0
0.66	-3.13865	1.07791	1.43787	0.624931	0.806159	1.02478	0.957832	-0.0176984	-0.0194053	0.959266	-0.0935059	0	0	0.470038	-0.028914	-0.143194	0.228057	-0.0884566	0	0	0.38884	0.117283	0.216062	-0.374639	-0.241856	-0.146112	0.482084	1.46904	0	0	-0.0652619	-0.0809684	-0.897983	0.260835	1.5703	0	0
0.67	-3.13245	1.07143	1.43557	0.62391	0.795293	1.02411	0.965084	-0.0141036	-0.0189153	0.894755	-0.0980795	0	0	0.461674	-0.0311785	-0.148599	0.221214	-0.0840947	0	0	0.394909	0.121606	0.212754	-0.374624	-0.24129	-0.140775	0.473467	1.46331	0	0	-0.0638264	-0.079963	-0.897884	0.262149	1.56974	0	0
0.68	-3.12783	1.065	1.43424	0.622763	0.784229	1.02326	0.969248	-0.0104526	-0.0163478	0.823781	-0.104996	0	0	0.452542	-0.0327958	-0.154906	0.214524	-0.0813732	0	0	0.401635	0.125438	0.210688	-0.374886	-0.240476	-0.134726	0.464133	1.4595	0	0	-0.0625792	-0.0793347	-0.896634	0.263478	1.56955	0	0
0.69	-3.12215	1.06182	1.43404	0.621726	0.773124	1.02253	0.967093	-0.00825792	-0.0142178	0.747631	-0.114086	0	0	0.440393	-0.0334275	-0.16024	0.208862	-0.0802206	0	0	0.403862	0.128318	0.207048	-0.373464	-0.239651	-0.128918	0.454587	1.45783	0	0	-0.0596456	-0.0787688	-0.894574	0.264622	1.56928	0	0
0.7	-3.11115	1.06643	1.43197	0.621014	0.76234	1.02226	0.954012	-0.00759738	-0.0153315	0.665888	-0.13194	0	0	0.421276	-0.0350162	-0.158897	0.203747	-0.0798134	0	0	0.392757	0.131095	0.199333	-0.366167	-0.240872	-0.119368	0.445022	1.45606	0	0	-0.052747	-0.0771095	-0.892206	0.266409	1.56664	0	0
0.71	-3.10429	1.0723	1.43225	0.620142	0.751315	1.0218	0.938176	-0.00794742	-0.0145772	0.580886	-0.151205	0	0	0.400426	-0.0352877	-0.161665	0.198012	-0.0793176	0	0	0.379849	0.132263	0.193006	-0.35838	-0.242039	-0.109428	0.436298	1.4555	0	0	-0.0465045	-0.0753335	-0.890616	0.269963	1.56215	0	0
0.72	-3.10196	1.07752	1.43584	0.619096	0.740037	1.02096	0.922442	-0.00968101	-0.0124178	0.495287	-0.174014	0	0	0.380056	-0.0340228	-0.167843	0.191997	-0.0776475	0	0	0.36863	0.131686	0.188313	-0.351814	-0.242598	-0.100115	0.428256	1.45592	0	0	-0.0416034	-0.0738509	-0.888689	0.27526	1.55677	0	0
0.73	-3.10232	1.08334	1.44265	0.617979	0.728619	1.01987	0.906542	-0.013385	-0.0109112	0.412567	-0.199444	0	0	0.359634	-0.031775	-0.173463	0.187062	-0.0752066	0	0	0.35712	0.129319	0.183896	-0.345883	-0.242503	-0.0919728	0.421082	1.45694	0	0	-0.0369487	-0.0728632	-0.88583	0.28182	1.55017	0	0
0.74	-3.10547	1.09028	1.45348	0.616898	0.717153	1.01865	0.890288	-0.019415	-0.0101639	0.333737	-0.22663	0	0	0.338884	-0.0271578	-0.175839	0.182874	-0.0721942	0	0	0.34408	0.124778	0.178881	-0.339682	-0.241929	-0.0846883	0.414488	1.45877	0	0	-0.0320191	-0.0724337	-0.881927	0.289485	1.54231	0	0
0.75	-3.10864	1.1001	1.46484	0.61582	0.705666	1.01741	0.871578	-0.0261034	-0.0100983	0.25899	-0.256793	0	0	0.316859	-0.0234892	-0.179117	0.180667	-0.0679369	0	0	0.326223	0.119699	0.173253	-0.33248	-0.241784	-0.0774984	0.409455	1.4618	0	0	-0.02677	-0.0717632	-0.876329	0.299422	1.53194	0	0
0.76	-3.1143	1.10913	1.47904	0.614657	0.694051	1.01594	0.854374	-0.0339162	-0.0100004	0.189679	-0.283022	0	0	0.295752	-0.0184118	-0.178983	0.179702	-0.0637365	0	0	0.309879	0.113501	0.167787	-0.326065	-0.240845	-0.0721589	0.404853	1.4646	0	0	-0.0220222	-0.0717238	-0.870011	0.309983	1.52121	0	0
0.77	-3.12204	1.11628	1.49551	0.613411	0.682249	1.01416	0.839795	-0.0424554	-0.0100585	0.126685	-0.301486	0	0	0.276819	-0.012785	-0.178282	0.180839	-0.0593903	0	0	0.297169	0.106664	0.163139	-0.321764	-0.239161	-0.0688653	0.400646	1.4668	0	0	-0.0177409	-0.0723154	-0.864166	0.320214	1.51161	0	0
0.78	-3.13039	1.12335	1.51249	0.61205	0.670259	1.0123	0.825722	-0.050854	-0.0108667	0.0697532	-0.313634	0	0	0.258139	-0.00756393	-0.177506	0.183705	-0.0551219	0	0	0.284934	0.0998522	0.158792	-0.317556	-0.237274	-0.0662513	0.395873	1.46883	0	0	-0.0136231	-0.0733312	-0.857618	0.330241	1.50074	0	0
0.79	-3.13972	1.1275	1.52933	0.610532	0.657954	1.01013	0.815279	-0.0584029	-0.011436	0.0197548	-0.317862	0	0	0.242981	-0.00311001	-0.177787	0.188843	-0.0520377	0	0	0.277615	0.0936035	0.155802	-0.315145	-0.235154	-0.0645191	0.390634	1.47037	0	0	-0.0109818	-0.0749034	-0.849808	0.339495	1.48934	0	0
